<svg width="25" height="25" viewBox="0 0 25 25" fill="none" xmlns="http://www.w3.org/2000/svg">
<path d="M9.97497 7.0406L9.9775 7.0416C10.03 6.8201 10.2209 6.6571 10.4597 6.6571H17.2625C17.2711 6.6571 17.2797 6.6536 17.2882 6.6541C17.1433 4.2646 15.119 3.1571 13.3329 3.1571H6.53016C6.29082 3.1571 6.09994 3.3246 6.04793 3.5456L6.04541 3.5446L3.07172 17.0636L3.07829 17.0641C3.07122 17.0961 3.05859 17.1266 3.05859 17.1611C3.05859 17.4376 3.28431 17.6566 3.56355 17.6566H7.63905L9.97497 7.0406Z" fill="#1565C0"/>
<path d="M17.2891 6.65402C17.3158 7.09202 17.2866 7.56852 17.1734 8.09502C16.5266 11.0925 14.1882 12.6525 11.2983 12.6525C11.2983 12.6525 9.54609 12.6525 9.12042 12.6525C8.85733 12.6525 8.73311 12.8055 8.67605 12.9225L7.79743 16.947L7.64342 17.6615H7.64039L7.00263 20.5595L7.0092 20.56C7.00213 20.592 6.9895 20.6225 6.9895 20.657C6.9895 20.9335 7.21522 21.157 7.49446 21.157H11.1973L11.2039 21.152C11.4422 21.1485 11.6316 20.98 11.681 20.758L11.6901 20.7505L12.6051 16.5425C12.6051 16.5425 12.6687 16.141 13.0949 16.141C13.5211 16.141 15.2046 16.141 15.2046 16.141C18.0945 16.141 20.4567 14.588 21.104 11.59C21.8322 8.21002 19.3973 6.66652 17.2891 6.65402Z" fill="#039BE5"/>
<path d="M10.4601 6.65685C10.2207 6.65685 10.0298 6.81985 9.97783 7.04135L9.97531 7.04035L8.67505 12.9229C8.73211 12.8059 8.85633 12.6529 9.11941 12.6529C9.54559 12.6529 11.2579 12.6529 11.2579 12.6529C14.1478 12.6529 16.5256 11.0929 17.1724 8.09535C17.2861 7.56885 17.3148 7.09235 17.2881 6.65435C17.28 6.65335 17.2709 6.65685 17.2628 6.65685H10.4601Z" fill="#283593"/>
</svg>
