<svg width="18" height="19" viewBox="0 0 18 19" fill="none" xmlns="http://www.w3.org/2000/svg">
<path fill-rule="evenodd" clip-rule="evenodd" d="M14.4402 12.5032C14.9543 12.5025 15.4522 12.3235 15.849 11.9967C16.2458 11.6699 16.517 11.2156 16.6163 10.7112L17.7313 5.13824C17.7958 4.81526 17.788 4.48196 17.7084 4.16235C17.6288 3.84275 17.4793 3.54479 17.2707 3.28986C17.0622 3.03492 16.7997 2.82936 16.5022 2.68799C16.2048 2.54662 15.8796 2.47293 15.5503 2.47223H4.45025V1.35724C4.44998 1.06239 4.33296 0.779634 4.12475 0.570862C3.91654 0.362089 3.6341 0.244283 3.33925 0.243225H1.12426C0.834452 0.251907 0.559425 0.373115 0.357503 0.581177C0.155581 0.789239 0.042653 1.06779 0.042653 1.35773C0.042653 1.64766 0.155581 1.92622 0.357503 2.13428C0.559425 2.34234 0.834452 2.46355 1.12426 2.47223H2.23925V13.6172C1.79797 13.6153 1.36603 13.7443 0.998158 13.988C0.630288 14.2318 0.343053 14.5791 0.17281 14.9863C0.00256826 15.3934 -0.0430143 15.8419 0.0418595 16.2749C0.126733 16.7079 0.338227 17.1061 0.649556 17.4188C0.960885 17.7316 1.35805 17.9448 1.7907 18.0316C2.22335 18.1184 2.67204 18.0749 3.07992 17.9065C3.48779 17.7381 3.83653 17.4524 4.0819 17.0856C4.32727 16.7189 4.45824 16.2875 4.45824 15.8463H12.2243C12.226 16.2849 12.3577 16.7133 12.6027 17.0771C12.8478 17.441 13.1951 17.7242 13.6009 17.8908C14.0067 18.0575 14.4528 18.1002 14.8828 18.0135C15.3129 17.9268 15.7076 17.7146 16.0172 17.4038C16.3267 17.093 16.5373 16.6974 16.6222 16.267C16.7072 15.8366 16.6627 15.3907 16.4944 14.9856C16.3261 14.5805 16.0416 14.2343 15.6767 13.9907C15.3118 13.7472 14.883 13.6173 14.4443 13.6172H4.45726V12.5032H14.4402ZM15.5553 4.70325L14.4402 10.2762H4.45324V4.70325H15.5532H15.5553Z" fill="#33A0FF"/>
</svg>
