<svg width="19" height="16" viewBox="0 0 19 16" fill="none" xmlns="http://www.w3.org/2000/svg">
<path fill-rule="evenodd" clip-rule="evenodd" d="M12.8221 2.58625C13.466 2.58691 14.0959 2.7734 14.6363 3.12336C15.1768 3.47332 15.6046 3.97187 15.8686 4.55909C16.1326 5.14632 16.2215 5.79729 16.1246 6.43379C16.0276 7.07028 15.749 7.66523 15.3221 8.14723C14.7091 8.83823 9.48217 13.7313 9.48217 13.7313C9.48217 13.7313 4.24415 8.83824 3.63115 8.13624C3.08996 7.52878 2.79224 6.74284 2.79516 5.92927C2.81032 5.05253 3.16923 4.21678 3.79461 3.60212C4.41998 2.98746 5.26179 2.64307 6.13866 2.64307C7.01553 2.64307 7.85728 2.98746 8.48266 3.60212C9.10803 4.21678 9.467 5.05253 9.48217 5.92927C9.48217 5.49013 9.56863 5.05526 9.73668 4.64954C9.90474 4.24383 10.1511 3.87522 10.4616 3.56471C10.7721 3.25419 11.1407 3.00784 11.5464 2.83979C11.9522 2.67174 12.387 2.58527 12.8262 2.58527L12.8221 2.58625ZM12.8262 0.356271C11.6199 0.354166 10.4458 0.745625 9.48217 1.47126C8.37821 0.651877 7.0103 0.269452 5.64147 0.39753C4.27263 0.525609 2.99943 1.15515 2.06664 2.16511C1.13385 3.17507 0.607294 4.49416 0.588185 5.86884C0.569077 7.24353 1.05876 8.57676 1.96312 9.61225C2.58912 10.3303 6.71212 14.1903 7.96312 15.3563C8.37604 15.7424 8.9203 15.9572 9.48565 15.9572C10.051 15.9572 10.5952 15.7424 11.0081 15.3563C12.2521 14.1913 16.3581 10.3413 16.9921 9.62428C17.7034 8.82074 18.1677 7.82891 18.329 6.76795C18.4903 5.70699 18.3419 4.62202 17.9015 3.64338C17.4611 2.66474 16.7475 1.83404 15.8465 1.25111C14.9455 0.668179 13.8953 0.357796 12.8221 0.357247L12.8262 0.356271Z" fill="#33A0FF"/>
</svg>
